<svg fill="#000000" xmlns="http://www.w3.org/2000/svg" viewBox="0 0 64 64" width="64px" height="64px"><path d="M 32 2 C 15.457031 2 2 15.457031 2 32 C 2 48.542969 15.457031 62 32 62 C 48.542969 62 62 48.542969 62 32 C 62 15.457031 48.542969 2 32 2 Z M 32 4 C 47.4375 4 60 16.5625 60 32 C 60 47.4375 47.4375 60 32 60 C 16.5625 60 4 47.4375 4 32 C 4 16.5625 16.5625 4 32 4 Z M 31.621094 9.003906 C 27.589844 9.070313 23.621094 10.191406 20.144531 12.28125 C 19.671875 12.566406 19.523438 13.183594 19.808594 13.65625 C 19.996094 13.96875 20.324219 14.140625 20.664063 14.140625 C 20.839844 14.140625 21.019531 14.09375 21.179688 13.996094 C 25.40625 11.449219 30.433594 10.480469 35.339844 11.265625 C 35.878906 11.351563 36.394531 10.980469 36.484375 10.4375 C 36.574219 9.890625 36.199219 9.378906 35.65625 9.289063 C 34.3125 9.078125 32.960938 8.980469 31.621094 9.003906 Z M 39.660156 10.386719 C 39.273438 10.402344 38.910156 10.648438 38.765625 11.035156 C 38.570313 11.554688 38.832031 12.128906 39.351563 12.324219 C 40.0625 12.589844 40.769531 12.898438 41.449219 13.238281 C 41.59375 13.3125 41.75 13.347656 41.902344 13.347656 C 42.265625 13.347656 42.617188 13.148438 42.796875 12.796875 C 43.042969 12.304688 42.84375 11.703125 42.351563 11.453125 C 41.605469 11.078125 40.832031 10.742188 40.050781 10.449219 C 39.925781 10.402344 39.792969 10.382813 39.660156 10.386719 Z M 42.144531 21.429688 C 40.847656 21.429688 39.664063 21.652344 38.597656 22.09375 C 37.535156 22.539063 36.628906 23.179688 35.878906 24.03125 C 35.132813 24.875 34.550781 25.921875 34.140625 27.160156 C 33.730469 28.398438 33.527344 29.8125 33.527344 31.40625 L 33.527344 32.621094 C 33.527344 34.214844 33.742188 35.628906 34.171875 36.859375 C 34.597656 38.09375 35.207031 39.136719 35.984375 39.984375 C 36.765625 40.832031 37.707031 41.472656 38.804688 41.910156 C 39.902344 42.351563 41.117188 42.570313 42.441406 42.570313 C 43.574219 42.570313 44.574219 42.472656 45.445313 42.28125 C 46.316406 42.089844 47.074219 41.847656 47.714844 41.5625 C 48.355469 41.273438 48.890625 40.964844 49.3125 40.628906 C 49.738281 40.292969 50.074219 39.980469 50.316406 39.6875 L 50.316406 32 L 42.683594 32 L 42.683594 35.050781 L 46.082031 35.050781 L 46.082031 38.152344 C 45.96875 38.261719 45.8125 38.378906 45.636719 38.496094 C 45.453125 38.613281 45.230469 38.722656 44.964844 38.820313 C 44.695313 38.917969 44.371094 39.003906 43.996094 39.066406 C 43.621094 39.132813 43.175781 39.167969 42.667969 39.167969 C 41.082031 39.167969 39.882813 38.617188 39.0625 37.515625 C 38.242188 36.410156 37.832031 34.78125 37.832031 32.625 L 37.832031 31.378906 C 37.832031 29.222656 38.207031 27.59375 38.964844 26.496094 C 39.71875 25.398438 40.820313 24.847656 42.269531 24.847656 C 42.898438 24.847656 43.445313 24.929688 43.902344 25.089844 C 44.359375 25.25 44.742188 25.476563 45.050781 25.773438 C 45.367188 26.070313 45.609375 26.429688 45.789063 26.847656 C 45.96875 27.269531 46.101563 27.738281 46.1875 28.253906 L 50.3125 28.253906 C 50.199219 27.257813 49.960938 26.339844 49.59375 25.5 C 49.226563 24.660156 48.714844 23.941406 48.0625 23.339844 C 47.40625 22.738281 46.589844 22.265625 45.613281 21.933594 C 44.640625 21.597656 43.484375 21.429688 42.144531 21.429688 Z M 22.253906 21.433594 C 20.957031 21.433594 19.777344 21.660156 18.722656 22.125 C 17.667969 22.585938 16.769531 23.246094 16.03125 24.101563 C 15.292969 24.960938 14.71875 26 14.3125 27.226563 C 13.910156 28.449219 13.707031 29.820313 13.707031 31.339844 L 13.707031 32.695313 C 13.707031 34.210938 13.902344 35.582031 14.296875 36.800781 C 14.6875 38.023438 15.246094 39.058594 15.976563 39.917969 C 16.707031 40.777344 17.597656 41.433594 18.644531 41.890625 C 19.699219 42.347656 20.882813 42.574219 22.203125 42.574219 C 23.472656 42.574219 24.605469 42.398438 25.597656 42.046875 C 26.59375 41.691406 27.441406 41.203125 28.136719 40.574219 C 28.835938 39.949219 29.378906 39.195313 29.777344 38.320313 C 30.164063 37.46875 30.386719 36.535156 30.46875 35.527344 L 26.230469 35.523438 C 26.179688 36.09375 26.074219 36.609375 25.90625 37.046875 C 25.726563 37.511719 25.472656 37.890625 25.144531 38.199219 C 24.820313 38.503906 24.417969 38.730469 23.933594 38.882813 C 23.445313 39.035156 22.871094 39.109375 22.203125 39.109375 C 21.445313 39.109375 20.804688 38.972656 20.269531 38.703125 C 19.738281 38.4375 19.308594 38.03125 18.96875 37.496094 C 18.636719 36.960938 18.390625 36.289063 18.234375 35.488281 C 18.082031 34.6875 18 33.757813 18 32.691406 L 18 31.308594 C 18 29.125 18.351563 27.507813 19.054688 26.46875 C 19.753906 25.429688 20.824219 24.90625 22.253906 24.90625 C 22.953125 24.90625 23.546875 24.988281 24.035156 25.15625 C 24.523438 25.320313 24.925781 25.5625 25.234375 25.882813 C 25.546875 26.203125 25.785156 26.597656 25.953125 27.070313 C 26.09375 27.480469 26.183594 27.960938 26.238281 28.480469 L 30.472656 28.480469 C 30.355469 27.519531 30.132813 26.621094 29.777344 25.792969 C 29.390625 24.902344 28.851563 24.132813 28.160156 23.488281 C 27.472656 22.84375 26.636719 22.339844 25.65625 21.976563 C 24.671875 21.613281 23.535156 21.433594 22.253906 21.433594 Z M 22.375 48.394531 C 21.984375 48.347656 21.589844 48.527344 21.386719 48.886719 L 20.386719 50.621094 C 20.109375 51.097656 20.273438 51.707031 20.75 51.984375 C 20.90625 52.074219 21.078125 52.121094 21.25 52.121094 C 21.59375 52.121094 21.929688 51.941406 22.113281 51.621094 L 23.113281 49.886719 C 23.390625 49.410156 23.230469 48.796875 22.75 48.519531 C 22.628906 48.453125 22.503906 48.410156 22.375 48.394531 Z M 41.625 48.394531 C 41.5 48.410156 41.371094 48.453125 41.25 48.519531 C 40.769531 48.796875 40.609375 49.410156 40.886719 49.890625 L 41.886719 51.621094 C 42.070313 51.941406 42.40625 52.121094 42.75 52.121094 C 42.921875 52.121094 43.09375 52.078125 43.25 51.984375 C 43.730469 51.710938 43.890625 51.097656 43.613281 50.621094 L 42.613281 48.890625 C 42.410156 48.53125 42.015625 48.347656 41.625 48.394531 Z M 26.8125 50.34375 C 26.429688 50.398438 26.09375 50.675781 25.984375 51.078125 L 25.46875 53.011719 C 25.324219 53.542969 25.644531 54.089844 26.175781 54.234375 C 26.261719 54.257813 26.351563 54.269531 26.4375 54.269531 C 26.878906 54.269531 27.28125 53.972656 27.402344 53.527344 L 27.917969 51.59375 C 28.0625 51.0625 27.746094 50.511719 27.214844 50.371094 C 27.078125 50.332031 26.941406 50.328125 26.8125 50.34375 Z M 37.1875 50.34375 C 37.058594 50.328125 36.921875 50.332031 36.785156 50.371094 C 36.253906 50.511719 35.9375 51.0625 36.078125 51.59375 L 36.597656 53.527344 C 36.71875 53.972656 37.121094 54.269531 37.5625 54.269531 C 37.648438 54.269531 37.734375 54.257813 37.824219 54.234375 C 38.355469 54.089844 38.671875 53.542969 38.53125 53.011719 L 38.015625 51.078125 C 37.90625 50.675781 37.570313 50.398438 37.1875 50.34375 Z M 32 51 C 31.449219 51 31 51.449219 31 52 L 31 54 C 31 54.550781 31.449219 55 32 55 C 32.550781 55 33 54.550781 33 54 L 33 52 C 33 51.449219 32.550781 51 32 51 Z"/></svg>
