<svg xmlns="http://www.w3.org/2000/svg" viewBox="0 0 64 64" width="128px" height="128px"><path fill="#85cbf8" d="M59.17,41.4C53.98,56.41,37.6,64.36,22.6,59.17C7.59,53.98-0.36,37.6,4.83,22.6 c1.39-4.02,3.58-7.54,6.34-10.43C18.7,4.27,30.42,1.03,41.4,4.83c2.64,0.91,5.07,2.17,7.24,3.71C58.8,15.75,63.45,29.04,59.17,41.4 z"/><path fill="#7bbeeb" d="M52.528,46.816c1.531,1.225,1.723,3.512,0.374,4.935c-7.53,7.953-19.29,11.23-30.302,7.418 c-3.381-1.164-6.405-2.9-8.998-5.061c-1.473-1.227-1.611-3.445-0.321-4.865l0,0c1.236-1.361,3.303-1.448,4.72-0.276 c1.991,1.647,4.288,2.943,6.81,3.811C27.14,53.59,29.56,54,32,54c6.162,0,11.876-2.572,15.933-6.849 c1.218-1.284,3.201-1.45,4.583-0.344L52.528,46.816z"/><path fill="#fff" d="M50.316 39.688c-.244.293-.578.606-1.004.94-.423.334-.957.646-1.598.933-.641.287-1.395.528-2.268.72-.872.192-1.871.29-3.002.29-1.328 0-2.541-.218-3.639-.658-1.097-.438-2.038-1.081-2.819-1.929-.781-.849-1.389-1.89-1.816-3.123-.427-1.233-.643-2.647-.643-4.24v-1.215c0-1.592.205-3.008.615-4.246.411-1.239.989-2.283 1.738-3.13.748-.849 1.655-1.493 2.72-1.937 1.064-.443 2.247-.664 3.547-.664 1.337 0 2.494.168 3.469.502s1.79.804 2.445 1.406c.653.603 1.166 1.323 1.532 2.163.368.838.607 1.757.72 2.755h-4.127c-.084-.517-.217-.986-.397-1.406-.179-.42-.423-.777-.736-1.075-.31-.298-.693-.525-1.151-.685-.458-.16-1.001-.24-1.632-.24-1.452 0-2.554.549-3.308 1.647-.754 1.097-1.131 2.724-1.131 4.883v1.244c0 2.158.411 3.787 1.23 4.89.82 1.104 2.021 1.655 3.604 1.655.51 0 .952-.034 1.328-.099.377-.066.699-.148.968-.247.269-.099.491-.206.672-.325.179-.118.336-.234.449-.346v-3.097h-3.399V32h7.632V39.688zM26.231 35.524c-.052.572-.157 1.084-.327 1.522-.179.462-.43.846-.757 1.152-.325.305-.73.534-1.215.685-.485.151-1.062.226-1.731.226-.756 0-1.397-.134-1.929-.403-.533-.269-.966-.672-1.302-1.209-.334-.537-.578-1.206-.736-2.006-.154-.801-.234-1.734-.234-2.799v-1.384c0-2.186.351-3.799 1.055-4.84.701-1.041 1.769-1.561 3.201-1.561.698 0 1.291.082 1.78.247.49.165.891.408 1.201.728.311.321.549.716.714 1.187.143.412.235.888.288 1.409h4.234c-.116-.96-.339-1.861-.698-2.688-.386-.89-.923-1.658-1.612-2.303s-1.525-1.149-2.508-1.513c-.984-.363-2.119-.545-3.399-.545-1.3 0-2.479.232-3.533.693-1.055.462-1.952 1.122-2.691 1.978-.74.858-1.313 1.899-1.717 3.124-.404 1.224-.607 2.595-.607 4.112v1.357c0 1.517.195 2.886.586 4.106.391 1.221.951 2.259 1.682 3.117.731.858 1.621 1.516 2.671 1.972 1.052.456 2.235.685 3.555.685 1.271 0 2.404-.177 3.398-.53.995-.353 1.841-.843 2.537-1.47.698-.626 1.244-1.378 1.641-2.254.385-.85.611-1.784.693-2.795L26.231 35.524z"/><path fill="#9fddff" d="M46.697,11.457L46.697,11.457c-0.973,1.461-2.885,1.902-4.44,1.086 c-0.98-0.514-2.005-0.957-3.067-1.323C36.86,10.41,34.44,10,32,10c-5.134,0-9.967,1.79-13.793,4.875 c-1.357,1.094-3.309,1.023-4.541-0.21L13.66,14.66c-1.409-1.409-1.317-3.747,0.232-5C21.355,3.624,31.668,1.462,41.4,4.83 c1.432,0.494,2.803,1.091,4.104,1.779C47.259,7.538,47.798,9.804,46.697,11.457z"/><path fill="#8d6c9f" d="M32,2C15.458,2,2,15.458,2,32s13.458,30,30,30s30-13.458,30-30S48.542,2,32,2z M32,60 C16.561,60,4,47.439,4,32S16.561,4,32,4s28,12.561,28,28S47.439,60,32,60z"/><path fill="#8d6c9f" d="M39.351 12.322c.712.267 1.419.576 2.099.919.145.073.298.107.45.107.366 0 .718-.201.894-.549.249-.493.051-1.095-.442-1.343-.746-.376-1.52-.715-2.3-1.007-.514-.194-1.093.069-1.287.586C38.571 11.553 38.833 12.128 39.351 12.322zM32 51c-.552 0-1 .448-1 1v2c0 .552.448 1 1 1s1-.448 1-1v-2C33 51.448 32.552 51 32 51zM38.013 51.077c-.143-.533-.688-.851-1.225-.707-.533.143-.85.691-.707 1.225l.518 1.932c.12.447.523.742.965.742.085 0 .172-.011.259-.035.533-.143.85-.691.707-1.225L38.013 51.077zM22.75 48.521c-.479-.277-1.09-.112-1.366.366l-1 1.732c-.276.478-.112 1.09.366 1.366.157.091.33.134.499.134.346 0 .682-.179.867-.5l1-1.732C23.392 49.41 23.229 48.798 22.75 48.521zM42.616 48.888c-.276-.479-.888-.643-1.366-.366-.479.276-.642.888-.366 1.366l1 1.732c.186.321.521.5.867.5.169 0 .342-.043.499-.134.479-.276.642-.888.366-1.366L42.616 48.888zM27.212 50.37c-.536-.144-1.082.174-1.225.707l-.518 1.932c-.143.534.174 1.082.707 1.225.087.023.174.035.259.035.442 0 .846-.295.965-.742l.518-1.932C28.062 51.061 27.745 50.512 27.212 50.37zM20.664 14.14c.176 0 .354-.046.515-.144 4.228-2.546 9.255-3.515 14.159-2.731.542.086 1.058-.284 1.146-.829S36.2 9.378 35.654 9.291c-5.367-.859-10.875.204-15.508 2.993-.473.285-.625.899-.34 1.373C19.994 13.968 20.324 14.14 20.664 14.14z"/></svg>
